<svg width="300" height="324" viewBox="0 0 300 324" fill="none" xmlns="http://www.w3.org/2000/svg">
<circle opacity="0.6" cx="154.094" cy="145.537" r="145.537" fill="#00227B"/>
<path d="M173.599 284.736H96.6498C83.4522 284.736 72.6548 273.981 72.6548 260.837V193.12C72.6548 179.975 83.4522 169.221 96.6498 169.221H173.6C186.798 169.221 197.595 179.975 197.595 193.12V260.837C197.595 273.98 186.797 284.736 173.599 284.736Z" fill="white"/>
<path d="M173.596 169.22C186.794 169.22 197.591 179.975 197.591 193.119V260.836C197.591 273.98 186.794 284.735 173.596 284.735H96.6471C83.4495 284.735 72.6521 273.98 72.6521 260.836V193.119C72.6521 179.975 83.4495 169.22 96.6471 169.22H173.596ZM173.596 165.443H96.6471C92.9097 165.443 89.2762 166.179 85.8476 167.629C82.5425 169.028 79.5722 171.026 77.0192 173.57C74.4661 176.113 72.4592 179.072 71.0548 182.363C69.5984 185.778 68.8594 189.397 68.8594 193.119V260.836C68.8594 264.558 69.5984 268.177 71.0548 271.592C72.4592 274.884 74.465 277.842 77.0192 280.385C79.5722 282.928 82.5436 284.927 85.8476 286.326C89.2762 287.776 92.9097 288.512 96.6471 288.512H173.597C177.335 288.512 180.968 287.776 184.397 286.326C187.702 284.927 190.672 282.929 193.225 280.385C195.779 277.842 197.785 274.883 199.19 271.592C200.646 268.177 201.385 264.558 201.385 260.836V193.119C201.385 189.397 200.646 185.778 199.19 182.363C197.785 179.071 195.78 176.113 193.225 173.57C190.672 171.027 187.701 169.028 184.397 167.629C180.968 166.179 177.334 165.443 173.596 165.443Z" fill="#00227B"/>
<path d="M195.873 242.863C183.892 244.262 171.95 244.607 171.95 244.607C171.95 244.607 165.869 214.403 164.183 190.719C162.941 173.17 164.109 159.205 171.95 163.76C175.558 165.856 179.712 169.803 184.045 174.81C200.294 193.595 218.963 227.328 219.987 234.327C220.648 238.829 208.244 241.411 195.873 242.863Z" fill="white"/>
<path d="M170.35 246.619L170.022 244.995C169.986 244.809 166.266 226.25 163.86 207.034C162.44 195.705 161.747 186.35 161.796 179.232C161.865 169.51 163.282 163.996 166.257 161.879C167.563 160.95 169.784 160.229 172.948 162.067C183.379 168.128 196.618 187.437 203.582 198.407C208.226 205.725 212.672 213.417 216.102 220.066C218.519 224.75 221.493 230.978 221.943 234.044C222.074 234.934 221.986 236.285 220.827 237.66C219.15 239.648 215.669 241.204 209.868 242.555C205.615 243.546 200.15 244.399 193.624 245.09C182.576 246.259 172.116 246.568 172.012 246.572L170.35 246.619ZM169.238 164.855C168.857 164.855 168.658 164.997 168.549 165.074C167.262 165.989 163.407 171.681 167.769 206.528C169.746 222.31 172.614 237.652 173.568 242.585C176.932 242.45 184.914 242.062 193.23 241.181C212.536 239.136 216.849 236.271 217.808 235.134C218.073 234.82 218.052 234.674 218.042 234.612C217.482 230.796 210.198 216.18 200.25 200.505C188.727 182.352 178.053 169.578 170.962 165.458C170.158 164.991 169.611 164.855 169.238 164.855Z" fill="#00227B"/>
<path d="M110.985 162.646L108.559 180.917L107.18 191.304L104.238 213.482C104.238 213.482 98.8609 217.124 89.9165 220.01C86.5746 221.091 82.7255 222.057 78.4776 222.69C71.5336 223.731 63.505 223.864 54.8066 222.091C32.4272 217.526 18.9966 200.969 13.1818 192.644C1.94334 176.577 0.213854 172.232 3.33799 165.468C5.72308 160.285 9.80949 159.338 9.80949 159.338C9.80949 159.338 9.60793 155.196 12.9 153.722C22.7666 149.309 35.4766 161.095 35.4766 161.095C35.4766 161.095 35.9501 148.421 42.7608 151.347C47.453 153.364 48.5171 167.163 48.5171 167.163C48.5171 167.163 54.8152 175.223 64.8205 176.293C70.049 176.852 77.2845 175.341 84.4701 173.147C84.5536 173.122 84.6381 173.098 84.7215 173.068C88.5511 171.89 92.3558 170.525 95.8397 169.175C97.4023 168.571 98.8999 167.967 100.304 167.389C106.583 164.796 110.985 162.646 110.985 162.646Z" fill="white"/>
<path opacity="0.35" d="M13.1821 192.644C19.0023 200.967 32.4308 217.527 54.8079 222.091C68.8248 224.947 81.1079 222.849 89.9211 220.007C98.8655 217.124 104.241 213.48 104.241 213.48L104.636 195.978C104.636 195.978 98.5415 190.129 92.8653 192.514C86.0449 195.379 88.2306 205.12 78.4898 207.829C51.4107 215.361 29.4129 201.601 22.3345 195.56C12.5146 187.18 9.95286 181.902 8.57122 179.724C5.7115 175.218 3.50304 171.677 2.25794 168.506C0.988996 173.87 3.69809 179.08 13.1821 192.644Z" fill="#00227B"/>
<path d="M68.3145 225.415C63.6419 225.415 58.9887 224.947 54.4158 224.014C44.3563 221.962 34.9709 217.342 26.5218 210.282C21.0841 205.738 16.0527 200.18 11.5686 193.767C6.09627 185.939 2.61778 180.562 1.03133 176.242C-0.489014 172.103 -0.338388 168.744 1.54931 164.647C3.40775 160.613 6.21763 158.757 7.9157 157.962C8.19311 155.888 9.2735 153.197 12.0975 151.934C20.1207 148.344 29.3794 153.899 33.9621 157.319C34.0065 157.087 34.0563 156.849 34.1094 156.609C34.8691 153.215 36.1803 150.912 38.0062 149.765C39.1278 149.06 40.9992 148.45 43.5512 149.548C46.14 150.662 48.0288 153.942 49.327 159.574C49.9913 162.461 50.3109 165.17 50.4312 166.37C51.8248 167.941 57.2712 173.511 65.0387 174.341C79.2181 175.854 109.814 161.033 110.121 160.883C110.774 160.564 111.55 160.629 112.139 161.052C112.729 161.474 113.037 162.186 112.943 162.903L106.201 213.736C106.127 214.291 105.82 214.788 105.356 215.102C105.13 215.255 99.7227 218.885 90.7318 221.811C85.4653 223.525 80.0471 224.641 74.6289 225.13C72.5234 225.32 70.4168 225.415 68.3145 225.415ZM10.2715 161.245C10.0169 161.314 7.00761 162.212 5.13183 166.283C2.60586 171.766 3.22679 174.962 14.8033 191.522C25.6874 207.09 39.6577 216.995 55.2057 220.166C69.3722 223.055 81.6769 220.625 89.5051 218.077C96.1413 215.918 100.718 213.341 102.41 212.313L108.561 165.946C105.348 167.407 100.092 169.703 94.194 171.905C81.0646 176.805 71.1125 178.937 64.6182 178.244C53.9043 177.101 47.2464 168.726 46.9679 168.37C46.7306 168.065 46.5876 167.698 46.5583 167.314C46.5561 167.282 46.2885 163.931 45.4736 160.41C44.1006 154.475 42.4578 153.353 41.9875 153.151C40.8107 152.645 40.3024 152.964 40.1106 153.083C38.4538 154.122 37.5565 158.437 37.4481 161.169C37.4178 161.935 36.941 162.615 36.229 162.907C35.516 163.2 34.6989 163.053 34.1344 162.53C34.0173 162.422 22.2631 151.689 13.7121 155.515C11.742 156.397 11.7778 159.056 11.7832 159.247C11.8417 160.217 11.224 161.044 10.2715 161.245Z" fill="#00227B"/>
<path d="M37.1023 161.093C37.1478 161.645 37.0654 162.147 36.9549 162.582C36.8996 162.806 36.8314 163 36.762 163.2C36.6916 163.387 36.6146 163.577 36.5388 163.746C36.2278 164.443 35.8919 165.021 35.5722 165.581C35.2514 166.138 34.9426 166.668 34.6554 167.199L34.4452 167.598C34.3791 167.732 34.3087 167.865 34.2447 168L34.0583 168.406L33.8806 168.816L33.7192 169.232L33.5696 169.655C33.5187 169.797 33.4808 169.941 33.4353 170.085C33.3876 170.229 33.3518 170.375 33.3128 170.521C33.1633 171.108 33.0343 171.713 32.9595 172.335C32.8783 172.957 32.8262 173.595 32.8111 174.244C32.7948 174.57 32.8013 174.896 32.7981 175.228C32.7927 175.394 32.8067 175.558 32.8078 175.726C32.8111 175.893 32.8165 176.06 32.8154 176.23V176.241C32.8154 176.372 32.7092 176.478 32.577 176.478C32.4849 176.478 32.4058 176.426 32.3668 176.349C32.0504 175.738 31.7643 175.104 31.5432 174.441C31.3102 173.781 31.1434 173.092 31.0209 172.387C30.7803 170.978 30.7858 169.486 31.0502 168.029L31.1596 167.485C31.2019 167.306 31.2485 167.128 31.2929 166.947C31.3406 166.769 31.3937 166.595 31.4435 166.416C31.4955 166.241 31.5573 166.069 31.6147 165.895C31.8521 165.204 32.1457 164.548 32.4481 163.933C32.7493 163.319 33.0701 162.739 33.3301 162.236C33.6043 161.727 33.7593 161.313 33.8503 161.09L34.041 160.623C34.3726 159.812 35.3013 159.423 36.1151 159.753C36.6905 159.988 37.0535 160.518 37.1023 161.093Z" fill="#00227B"/>
<path d="M52.6432 223.439C52.1458 223.439 51.6657 223.165 51.4295 222.691C51.0957 222.024 51.3688 221.215 52.0385 220.883C57.5033 218.175 61.2375 209.724 62.8348 196.443C64.0734 186.15 63.5587 176.578 63.5533 176.483C63.5121 175.739 64.0832 175.102 64.8298 175.06C65.5732 175.018 66.2158 175.588 66.2581 176.332C66.2635 176.429 66.7912 186.205 65.5288 196.727C64.7821 202.954 63.563 208.237 61.9051 212.43C59.7595 217.857 56.8455 221.514 53.2457 223.298C53.0517 223.394 52.8458 223.439 52.6432 223.439Z" fill="#00227B"/>
<g opacity="0.35">
<g opacity="0.35">
<g opacity="0.35">
<g opacity="0.35">
<path opacity="0.35" d="M227.466 310.281V310.005C225.299 310.098 227.466 310.281 227.466 310.281Z" fill="#00227B"/>
</g>
</g>
</g>
</g>
<path d="M200.118 277.136H69.9839C69.9839 277.136 70.7771 254.767 78.4753 222.689C81.5604 209.824 85.7595 195.397 91.4616 180.224C92.8314 176.581 94.291 172.895 95.8385 169.174C100.165 158.792 105.212 148.159 111.097 137.527H159.006C163.87 146.318 168.163 155.105 171.948 163.759C174.397 169.355 176.635 174.892 178.675 180.33C187.581 204.04 192.81 225.923 195.87 242.863C199.645 263.76 200.118 277.136 200.118 277.136Z" fill="white"/>
<path d="M182.256 197.013C184.771 199.81 185.921 203.065 186.983 206.334C187.516 207.969 188.042 209.608 188.544 211.254C188.795 212.076 189.053 212.897 189.277 213.727C189.508 214.555 189.732 215.386 189.958 216.216L190.617 218.711C190.833 219.543 191.052 220.374 191.256 221.21L192.453 226.229C192.648 227.067 192.862 227.899 193.053 228.737L193.624 231.252L194.21 233.764C194.407 234.6 194.611 235.436 194.795 236.275L195.924 241.308C196.118 242.146 196.285 242.99 196.464 243.831L196.993 246.355L197.257 247.617L197.389 248.248L197.513 248.881L198.008 251.412C198.173 252.256 198.343 253.099 198.522 253.939C198.693 254.782 198.865 255.625 199.045 256.467C199.799 259.827 200.35 263.23 200.578 266.677C200.608 267.108 200.641 267.538 200.662 267.97L200.717 269.267C200.745 270.132 200.769 270.997 200.756 271.868C200.751 272.737 200.731 273.607 200.675 274.48C200.624 275.353 200.551 276.226 200.419 277.106C200.394 277.275 200.235 277.392 200.065 277.367C199.949 277.35 199.858 277.271 199.819 277.169L199.818 277.165C199.196 275.519 198.687 273.866 198.207 272.212C197.971 271.385 197.744 270.556 197.524 269.729L197.207 268.484C197.108 268.069 197.005 267.654 196.901 267.239C196.497 265.578 196.142 263.912 195.822 262.239C195.668 261.402 195.529 260.562 195.401 259.72C195.263 258.879 195.136 258.037 195.005 257.196C194.877 256.353 194.743 255.512 194.606 254.671C194.461 253.831 194.3 252.995 194.136 252.158L193.645 249.649L193.523 249.022L193.392 248.396L193.129 247.145L192.605 244.642C192.427 243.809 192.261 242.972 192.07 242.141L190.949 237.151C190.769 236.317 190.559 235.491 190.361 234.662L189.749 232.178L189.121 229.699C189.019 229.286 188.903 228.875 188.793 228.463L188.456 227.23L187.102 222.297C186.634 220.658 186.155 219.021 185.699 217.379C185.471 216.557 185.244 215.736 185.023 214.913L184.858 214.295L184.684 213.68L184.34 212.448C183.882 210.807 183.447 209.158 183.019 207.506L182.705 206.265C182.6 205.852 182.484 205.442 182.373 205.029C182.153 204.205 181.969 203.369 181.83 202.52C181.693 201.669 181.596 200.806 181.559 199.923C181.54 199.482 181.538 199.035 181.554 198.581C181.571 198.128 181.601 197.669 181.681 197.196L181.684 197.177C181.714 196.998 181.885 196.877 182.064 196.907C182.141 196.921 182.209 196.96 182.256 197.013Z" fill="#00227B"/>
<path d="M69.685 277.126C69.4846 276.681 69.3469 276.24 69.218 275.796C69.089 275.352 68.9926 274.912 68.907 274.47C68.7336 273.585 68.6404 272.705 68.5884 271.828C68.5645 271.388 68.5483 270.95 68.5494 270.513C68.5505 270.076 68.5678 269.641 68.5884 269.206L68.6621 267.901C68.6848 267.466 68.7119 267.031 68.7477 266.597C68.8831 264.862 69.0153 263.124 69.2191 261.397C69.3112 260.532 69.4141 259.668 69.516 258.804C69.5658 258.372 69.633 257.942 69.6915 257.511L69.8747 256.219L70.2572 253.638C70.3916 252.779 70.5476 251.924 70.6939 251.067C70.993 249.354 71.2747 247.639 71.6161 245.935C71.9477 244.229 72.2511 242.518 72.5903 240.815C72.9349 239.113 73.2708 237.408 73.6024 235.703C73.6869 235.277 73.7628 234.849 73.8549 234.425L74.1279 233.152L74.673 230.604L75.2181 228.057C75.2647 227.845 75.3069 227.632 75.3557 227.42L75.5052 226.787L75.8043 225.519L76.9996 220.447C77.096 220.024 77.2044 219.603 77.3117 219.182C77.4157 218.76 77.5219 218.339 77.6216 217.917C77.8232 217.072 78.0225 216.227 78.2143 215.38C78.4105 214.533 78.6023 213.685 78.8049 212.84C79 211.993 79.2449 211.16 79.4898 210.325C79.7401 209.493 80.0056 208.665 80.2841 207.841C80.5637 207.017 80.8606 206.198 81.1608 205.381L81.6246 204.159C81.7026 203.956 81.7893 203.755 81.8738 203.554C81.9594 203.353 82.0418 203.151 82.1306 202.95C82.4806 202.148 82.835 201.35 83.2121 200.559C83.5849 199.765 83.9739 198.978 84.3824 198.199C84.791 197.42 85.2147 196.646 85.685 195.888C85.7749 195.743 85.9667 195.697 86.113 195.788C86.2127 195.849 86.2658 195.958 86.2604 196.069V196.073C86.0653 199.635 85.3956 203.024 84.7346 206.412C84.5645 207.257 84.3911 208.101 84.2004 208.94C84.0086 209.779 83.8027 210.613 83.5838 211.443C83.1265 213.099 82.667 214.754 82.1881 216.405C81.9486 217.231 81.7156 218.057 81.4848 218.885C81.3677 219.299 81.2583 219.714 81.1467 220.129C81.0372 220.544 80.9245 220.959 80.8313 221.378L79.6491 226.396L79.3533 227.65L79.2059 228.277C79.1571 228.487 79.1149 228.697 79.0693 228.907L78.5297 231.427L77.99 233.947L77.7202 235.208C77.6303 235.627 77.5544 236.051 77.471 236.472C76.0861 243.205 75.1552 250.02 74.2504 256.821L73.8993 259.37C73.7898 260.221 73.6804 261.071 73.5612 261.921L72.8633 267.018C72.7365 267.868 72.6347 268.717 72.5198 269.566C72.4602 269.991 72.3974 270.416 72.3183 270.839C72.2402 271.262 72.1633 271.685 72.0679 272.107C71.8783 272.951 71.6432 273.793 71.3647 274.633C71.226 275.053 71.0602 275.474 70.89 275.892C70.7156 276.311 70.5259 276.732 70.2919 277.15L70.2897 277.154C70.1987 277.316 69.9939 277.374 69.8313 277.284C69.763 277.245 69.7143 277.189 69.685 277.126Z" fill="#00227B"/>
<path d="M107.472 248.914C100.051 251.907 88.5639 251.281 80.7335 250.337C76.0371 249.771 72.7395 245.454 73.432 240.793C74.0637 236.539 77.8229 233.446 82.1347 233.646C89.459 233.989 100.446 234.148 107.404 232.611" fill="white"/>
<g opacity="0.35">
<g opacity="0.35">
<g opacity="0.35">
<g opacity="0.35">
<path opacity="0.35" d="M107.473 248.913C100.049 251.911 88.5629 251.278 80.7325 250.34C76.036 249.773 72.7396 245.454 73.432 240.796C73.5696 239.845 73.8698 238.952 74.2957 238.137C75.5321 240.489 77.8739 242.223 80.7325 242.568C88.5488 243.512 100.016 244.138 107.441 241.161L107.473 248.913Z" fill="#00227B"/>
</g>
</g>
</g>
</g>
<path d="M92.717 253.08C88.4225 253.08 84.153 252.727 80.4968 252.287C77.6966 251.949 75.2118 250.533 73.4997 248.299C71.7843 246.061 71.068 243.293 71.482 240.506C71.8591 237.967 73.1616 235.669 75.149 234.036C77.1386 232.401 79.6526 231.566 82.2273 231.687C93.0171 232.19 101.807 231.838 106.977 230.697C108.015 230.468 110.594 230.459 112.116 235.334C113.663 240.287 113.491 248.608 108.213 250.736C103.86 252.49 98.2684 253.08 92.717 253.08ZM81.7354 235.601C78.556 235.601 75.8534 237.907 75.3831 241.08C75.1262 242.809 75.5705 244.527 76.6347 245.916C77.6955 247.301 79.2354 248.178 80.9714 248.388C92.1686 249.737 101.319 249.278 106.734 247.095C108.342 246.446 108.804 243.85 108.928 242.764C109.362 238.965 108.201 235.455 107.474 234.606C100.417 236.083 89.7835 235.97 82.0442 235.608C81.9402 235.603 81.8372 235.601 81.7354 235.601Z" fill="#00227B"/>
<path d="M164.237 248.914C171.658 251.907 183.145 251.281 190.975 250.337C195.672 249.771 198.969 245.454 198.277 240.793C197.645 236.539 193.886 233.446 189.574 233.646C182.25 233.989 171.263 234.148 164.305 232.611" fill="white"/>
<g opacity="0.35">
<g opacity="0.35">
<g opacity="0.35">
<g opacity="0.35">
<path opacity="0.35" d="M190.977 250.34C183.147 251.278 171.662 251.91 164.237 248.913L164.269 241.088C171.693 244.066 183.16 243.44 190.977 242.496C193.823 242.157 196.152 240.436 197.395 238.097C197.833 238.919 198.14 239.824 198.284 240.795C198.971 245.454 195.675 249.773 190.977 250.34Z" fill="#00227B"/>
</g>
</g>
</g>
</g>
<path d="M179.003 253.081C173.451 253.081 167.861 252.491 163.507 250.736C158.228 248.607 158.057 240.287 159.604 235.334C161.125 230.46 163.705 230.467 164.743 230.696C169.914 231.839 178.704 232.191 189.493 231.687C192.069 231.567 194.581 232.401 196.571 234.035C198.558 235.668 199.861 237.966 200.238 240.506C200.652 243.293 199.935 246.06 198.22 248.298C196.508 250.533 194.023 251.949 191.223 252.287C187.567 252.727 183.296 253.081 179.003 253.081ZM164.247 234.606C163.52 235.456 162.359 238.966 162.793 242.765C162.916 243.851 163.378 246.446 164.987 247.095C170.402 249.278 179.552 249.738 190.75 248.388C192.484 248.179 194.025 247.301 195.086 245.916C196.15 244.527 196.595 242.81 196.338 241.08C195.852 237.806 192.989 235.456 189.678 235.609C181.936 235.971 171.304 236.083 164.247 234.606Z" fill="#00227B"/>
<path d="M167.111 227.224V253.35C167.111 258.197 163.128 262.165 158.261 262.165H109.953C105.093 262.165 101.11 258.197 101.11 253.35V227.224C101.11 222.377 105.093 218.416 109.953 218.416H158.261C161.126 218.416 163.684 219.791 165.306 221.907C166.437 223.386 167.111 225.231 167.111 227.224Z" fill="white"/>
<g opacity="0.35">
<g opacity="0.35">
<g opacity="0.35">
<g opacity="0.35">
<path opacity="0.35" d="M167.106 227.224V253.35C167.106 258.197 163.125 262.163 158.258 262.163H109.951C105.085 262.163 101.104 258.197 101.104 253.35V243.578C108.358 250.946 122.627 255.57 135.713 255.64C139.917 255.662 143.309 252.35 143.609 248.172C143.613 248.13 143.616 248.088 143.619 248.047C143.941 244.381 146.972 241.413 150.656 241.149C154.852 240.848 158.394 243.934 158.81 247.946C165.143 240.158 163.288 226.621 165.303 221.908C166.435 223.389 167.106 225.23 167.106 227.224Z" fill="#00227B"/>
</g>
</g>
</g>
</g>
<path d="M158.264 264.127H109.955C103.991 264.127 99.1382 259.294 99.1382 253.353V227.224C99.1382 221.284 103.991 216.451 109.955 216.451H158.264C164.228 216.451 169.081 221.284 169.081 227.224V253.353C169.081 259.294 164.228 264.127 158.264 264.127ZM109.955 220.377C106.165 220.377 103.08 223.449 103.08 227.224V253.353C103.08 257.129 106.165 260.201 109.955 260.201H158.264C162.054 260.201 165.138 257.129 165.138 253.353V227.224C165.138 223.449 162.054 220.377 158.264 220.377H109.955Z" fill="#00227B"/>
<path d="M151.226 247.887C155.439 247.887 158.855 244.485 158.855 240.288C158.855 236.092 155.439 232.69 151.226 232.69C147.012 232.69 143.597 236.092 143.597 240.288C143.597 244.485 147.012 247.887 151.226 247.887Z" fill="#22A7F0"/>
<g opacity="0.7">
<g opacity="0.7">
<g opacity="0.7">
<g opacity="0.7">
<path opacity="0.7" d="M158.848 240.289C158.848 240.809 158.798 241.314 158.7 241.807C157.995 238.333 154.913 235.719 151.221 235.719C147.524 235.719 144.442 238.333 143.738 241.807C143.639 241.314 143.589 240.81 143.589 240.289C143.589 236.09 147.006 232.692 151.221 232.692C155.43 232.692 158.848 236.09 158.848 240.289Z" fill="white"/>
</g>
</g>
</g>
</g>
<g opacity="0.35">
<g opacity="0.35">
<g opacity="0.35">
<g opacity="0.35">
<path opacity="0.35" d="M158.85 240.288C158.85 244.483 155.435 247.884 151.223 247.884C147.011 247.884 143.596 244.483 143.596 240.288C143.596 239.317 143.779 238.391 144.12 237.539C145.218 240.373 147.986 242.379 151.224 242.379C154.462 242.379 157.228 240.373 158.328 237.539C158.666 238.391 158.85 239.316 158.85 240.288Z" fill="#00227B"/>
</g>
</g>
</g>
</g>
<path d="M151.225 249.359C146.203 249.359 142.118 245.29 142.118 240.289C142.118 235.287 146.203 231.218 151.225 231.218C156.246 231.218 160.332 235.287 160.332 240.289C160.332 245.29 156.246 249.359 151.225 249.359ZM151.225 234.163C147.834 234.163 145.075 236.911 145.075 240.289C145.075 243.666 147.834 246.414 151.225 246.414C154.616 246.414 157.374 243.666 157.374 240.289C157.374 236.911 154.616 234.163 151.225 234.163Z" fill="#00227B"/>
<path d="M129.607 263.636C128.79 263.636 128.129 262.977 128.129 262.164V244.269L118.468 237.025V218.414C118.468 217.6 119.13 216.942 119.946 216.942C120.762 216.942 121.424 217.601 121.424 218.414V235.555L131.085 242.799V262.164C131.085 262.977 130.423 263.636 129.607 263.636Z" fill="#00227B"/>
<path d="M135.056 276.231C143.602 276.231 151.819 273.073 158.238 267.453C167.128 259.669 182.094 250.386 198.613 256.341C205.242 258.728 209.758 263.109 212.84 267.956C220.777 249.64 237.426 248.542 244.632 258.923C244.632 258.923 232.519 316.481 228.571 317.762C222.916 319.597 209.327 317.667 209.327 317.667C209.327 317.667 162.052 311.293 135.056 311.293C108.061 311.293 60.786 317.667 60.786 317.667C60.786 317.667 47.1971 319.596 41.5416 317.762C37.5939 316.481 25.481 258.923 25.481 258.923C32.6861 248.541 49.3362 249.64 57.2728 267.956C60.3536 263.108 64.8713 258.728 71.4999 256.341C88.0189 250.386 102.985 259.669 111.875 267.453C118.294 273.072 126.511 276.231 135.056 276.231Z" fill="white"/>
<g opacity="0.35">
<path d="M244.63 258.921C244.63 258.921 232.516 316.48 228.568 317.761C222.915 319.597 209.323 317.669 209.323 317.669C209.323 317.669 162.05 311.292 135.052 311.292C108.06 311.292 60.7819 317.669 60.7819 317.669C60.7819 317.669 47.1942 319.597 41.5419 317.761C37.5942 316.48 25.4802 258.921 25.4802 258.921C26.6679 257.212 28.107 255.813 29.7238 254.753C33.6075 271.63 39.1167 293.665 41.5419 294.451C47.1953 296.281 60.7819 294.352 60.7819 294.352C60.7819 294.352 108.06 281.599 135.052 281.599C162.05 281.599 209.323 294.352 209.323 294.352C209.323 294.352 222.915 296.281 228.568 294.451C230.994 293.665 236.503 271.63 240.387 254.753C242.003 255.814 243.442 257.213 244.63 258.921Z" fill="#00227B"/>
</g>
<path d="M48.8247 320.511C45.8599 320.511 42.9633 320.289 40.9261 319.629C39.5369 319.178 38.3687 317.644 36.1765 310.842C34.8935 306.861 33.3536 301.316 31.6014 294.363C28.4458 281.845 25.3704 267.806 24.1947 262.351C23.5792 259.495 24.5187 256.541 26.648 254.643C30.7355 250.999 36.2144 249.596 41.6781 250.794C45.1219 251.549 48.4726 253.34 51.368 255.972C53.7661 258.153 55.8511 260.878 57.5892 264.099C61.1165 259.616 65.5572 256.392 70.8259 254.493C76.7956 252.341 83.0417 251.914 89.3919 253.223C94.5186 254.281 99.732 256.473 104.886 259.741C105.805 260.324 106.075 261.537 105.49 262.452C104.906 263.368 103.687 263.636 102.768 263.055C92.1606 256.328 81.8649 254.691 72.1674 258.187C66.6983 260.158 62.2456 263.797 58.9351 269.007C58.5439 269.622 57.8417 269.971 57.1146 269.915C56.3864 269.857 55.7492 269.404 55.4588 268.735C52.1428 261.082 46.8113 255.941 40.8307 254.631C36.6197 253.708 32.4087 254.779 29.278 257.572C28.2009 258.531 27.7306 260.048 28.0503 261.529C29.1599 266.678 32.0684 279.962 35.0983 292.099C36.7638 298.77 38.2397 304.198 39.4859 308.229C41.2306 313.875 42.1419 315.531 42.4659 315.993C46.9197 317.236 56.9369 316.232 60.5042 315.726C60.5085 315.725 60.5129 315.725 60.5172 315.724C60.9908 315.66 108.234 309.331 135.052 309.331C161.871 309.331 209.113 315.66 209.587 315.724C209.591 315.725 209.597 315.725 209.601 315.726C213.17 316.232 223.186 317.236 227.639 315.993C227.958 315.539 228.844 313.931 230.531 308.516C231.747 304.611 233.188 299.349 234.813 292.875C237.711 281.332 240.488 268.772 241.886 262.313C242.344 260.197 241.548 258.027 239.857 256.786C236.631 254.417 232.633 253.71 228.601 254.796C222.823 256.351 217.867 261.302 214.647 268.736C214.357 269.404 213.72 269.859 212.991 269.916C212.261 269.973 211.561 269.623 211.17 269.008C207.86 263.799 203.408 260.159 197.939 258.188C188.156 254.662 177.772 256.356 167.074 263.224C166.158 263.811 164.939 263.549 164.348 262.637C163.759 261.726 164.022 260.511 164.938 259.922C170.123 256.594 175.37 254.353 180.532 253.262C186.945 251.906 193.253 252.322 199.281 254.495C204.549 256.393 208.99 259.618 212.518 264.102C216.221 257.246 221.481 252.644 227.572 251.004C232.714 249.619 238.044 250.574 242.198 253.625C245.135 255.781 246.525 259.516 245.742 263.14C244.261 269.983 241.327 283.24 238.308 295.141C236.597 301.89 235.093 307.268 233.839 311.122C231.7 317.698 230.551 319.186 229.178 319.631C223.183 321.576 209.739 319.712 209.054 319.615C208.313 319.516 161.528 313.259 135.053 313.259C108.574 313.259 61.7937 319.516 61.0525 319.615C60.5974 319.676 54.5843 320.511 48.8247 320.511Z" fill="#00227B"/>
<path d="M225.06 317.762H228.571C232.693 317.762 236.431 315.354 238.109 311.604C243.365 299.882 252.948 274.124 243.972 258.406C243.711 257.947 243.431 257.506 243.135 257.083C243.135 257.083 234.518 249.276 228.327 260.32C222.545 270.637 210.407 314.75 225.06 317.762Z" fill="#AFAFB2"/>
<g opacity="0.7">
<g opacity="0.7">
<g opacity="0.7">
<g opacity="0.7">
<path opacity="0.7" d="M225.155 267.673C225.31 267.425 225.465 267.192 225.616 266.975C233.227 255.932 243.824 263.738 243.824 263.738C244.187 264.162 244.533 264.603 244.852 265.062C245.915 266.575 246.764 268.18 247.428 269.86C246.999 265.732 245.928 261.829 243.97 258.407C243.709 257.948 243.43 257.507 243.134 257.083C243.134 257.083 234.517 249.277 228.326 260.32C227.386 261.992 226.284 264.546 225.155 267.673Z" fill="white"/>
</g>
</g>
</g>
</g>
<path d="M247.38 271.038C247.291 271.038 247.201 271.031 247.11 271.016L225.572 267.435C224.686 267.288 224.088 266.453 224.236 265.571C224.383 264.689 225.222 264.093 226.106 264.24L247.644 267.821C248.53 267.968 249.128 268.802 248.981 269.685C248.848 270.478 248.16 271.038 247.38 271.038Z" fill="#00227B"/>
<path d="M247.24 282.629C247.168 282.629 247.095 282.625 247.021 282.614L221.826 279.24C220.936 279.121 220.312 278.306 220.431 277.42C220.55 276.534 221.368 275.912 222.259 276.031L247.455 279.405C248.345 279.524 248.969 280.339 248.85 281.225C248.74 282.039 248.042 282.629 247.24 282.629Z" fill="#00227B"/>
<path d="M245.023 293.981C244.957 293.981 244.891 293.977 244.824 293.969L219.246 290.851C218.356 290.742 217.722 289.935 217.83 289.048C217.94 288.16 218.749 287.528 219.641 287.637L245.218 290.755C246.109 290.864 246.743 291.671 246.634 292.559C246.534 293.38 245.833 293.981 245.023 293.981Z" fill="#00227B"/>
<path d="M240.96 306.362C240.911 306.362 240.861 306.36 240.811 306.356L217.944 304.301C217.05 304.221 216.392 303.433 216.472 302.542C216.552 301.652 217.343 300.995 218.237 301.076L241.104 303.131C241.998 303.21 242.658 303.998 242.577 304.889C242.501 305.73 241.791 306.362 240.96 306.362Z" fill="#00227B"/>
<g opacity="0.35">
<g opacity="0.35">
<g opacity="0.35">
<g opacity="0.35">
<path opacity="0.35" d="M225.06 317.762H228.571C232.693 317.762 236.431 315.354 238.109 311.604C239.468 308.566 241.121 304.592 242.666 300.089C240.558 303.573 236.276 305.782 231.574 305.782H227.389C221.433 304.755 219.192 298.937 219.103 291.312C217.09 304.183 217.643 316.237 225.06 317.762Z" fill="#00227B"/>
</g>
</g>
</g>
</g>
<path d="M228.564 319.38H225.053C224.942 319.38 224.833 319.37 224.725 319.347C221.887 318.763 219.742 316.93 218.35 313.899C215.067 306.751 216.662 294.299 218.579 285.112C220.922 273.885 224.539 263.744 226.902 259.53C229.073 255.656 231.81 253.425 235.032 252.901C239.976 252.098 244.051 255.73 244.223 255.884C244.313 255.965 244.393 256.057 244.462 256.155C244.786 256.617 245.095 257.106 245.38 257.606C249.483 264.79 250.353 274.617 247.968 286.812C246.028 296.727 242.34 306.125 239.588 312.263C237.651 316.587 233.326 319.38 228.564 319.38ZM225.23 316.142H228.564C232.042 316.142 235.205 314.103 236.618 310.946C239.301 304.961 242.894 295.808 244.775 286.195C247.009 274.781 246.26 265.701 242.553 259.207C242.351 258.853 242.135 258.507 241.911 258.177C241.302 257.681 238.536 255.603 235.537 256.1C233.35 256.464 231.4 258.149 229.741 261.109C227.554 265.01 224.015 274.98 221.763 285.772C219.194 298.088 219.031 307.599 221.307 312.553C222.23 314.563 223.514 315.74 225.23 316.142Z" fill="#00227B"/>
<path d="M45.0545 317.762H41.5435C37.4213 317.762 33.6838 315.354 32.0053 311.604C26.7496 299.882 17.167 274.124 26.1428 258.406C26.4039 257.947 26.6835 257.506 26.9793 257.083C26.9793 257.083 35.5964 249.276 41.7873 260.32C47.5696 270.637 59.7064 314.75 45.0545 317.762Z" fill="#AFAFB2"/>
<g opacity="0.7">
<g opacity="0.7">
<g opacity="0.7">
<g opacity="0.7">
<path opacity="0.7" d="M44.9504 267.673C44.7954 267.425 44.6405 267.192 44.4898 266.975C36.8783 255.932 26.2814 263.738 26.2814 263.738C25.9184 264.162 25.5727 264.603 25.2541 265.062C24.1911 266.575 23.3415 268.18 22.6772 269.86C23.1064 265.732 24.1781 261.829 26.1351 258.407C26.3963 257.948 26.6759 257.507 26.9717 257.083C26.9717 257.083 35.5888 249.277 41.7796 260.32C42.7181 261.992 43.8212 264.546 44.9504 267.673Z" fill="white"/>
</g>
</g>
</g>
</g>
<path d="M22.727 271.038C21.9468 271.038 21.2587 270.477 21.1254 269.686C20.978 268.804 21.5751 267.97 22.4615 267.822L43.9999 264.241C44.8853 264.094 45.7229 264.688 45.8703 265.571C46.0177 266.453 45.4206 267.287 44.5342 267.435L22.9957 271.017C22.9058 271.032 22.8158 271.038 22.727 271.038Z" fill="#00227B"/>
<path d="M22.8657 282.629C22.0638 282.629 21.366 282.039 21.2565 281.226C21.1373 280.34 21.7615 279.525 22.6512 279.406L47.848 276.031C48.7387 275.911 49.5558 276.534 49.6761 277.42C49.7953 278.306 49.1711 279.121 48.2814 279.24L23.0846 282.615C23.0109 282.625 22.9383 282.629 22.8657 282.629Z" fill="#00227B"/>
<path d="M25.088 293.981C24.2785 293.981 23.5774 293.38 23.4766 292.558C23.3672 291.671 24.0011 290.864 24.893 290.755L50.4701 287.637C51.3609 287.529 52.1714 288.159 52.2809 289.047C52.3903 289.935 51.7564 290.742 50.8646 290.851L25.2874 293.969C25.2202 293.978 25.153 293.981 25.088 293.981Z" fill="#00227B"/>
<path d="M29.1427 306.362C28.3105 306.362 27.6018 305.729 27.5259 304.889C27.4457 303.998 28.1046 303.211 28.9986 303.13L51.8655 301.075C52.7606 300.996 53.5495 301.652 53.6308 302.542C53.711 303.433 53.0521 304.219 52.1581 304.3L29.2911 306.355C29.2413 306.36 29.1914 306.362 29.1427 306.362Z" fill="#00227B"/>
<g opacity="0.35">
<g opacity="0.35">
<g opacity="0.35">
<g opacity="0.35">
<path opacity="0.35" d="M45.0515 317.762H41.5405C37.4183 317.762 33.6808 315.354 32.0023 311.604C30.6434 308.566 28.9908 304.592 27.4456 300.089C29.5532 303.573 33.8358 305.782 38.5377 305.782H42.7227C48.6784 304.755 50.9194 298.937 51.0082 291.312C53.0216 304.183 52.4679 316.237 45.0515 317.762Z" fill="#00227B"/>
</g>
</g>
</g>
</g>
<path d="M45.0483 319.381H41.5373C36.7769 319.381 32.4499 316.587 30.5146 312.264C27.7632 306.127 24.0745 296.728 22.1348 286.814C19.7497 274.618 20.6198 264.791 24.7225 257.606C25.0075 257.107 25.3163 256.619 25.6393 256.157C25.7086 256.057 25.7888 255.967 25.8787 255.886C26.05 255.73 30.1255 252.1 35.0691 252.903C38.2918 253.426 41.028 255.657 43.1996 259.532C45.562 263.745 49.1792 273.887 51.522 285.114C53.4389 294.301 55.0341 306.753 51.7517 313.9C50.3592 316.932 48.2147 318.764 45.3767 319.348C45.2683 319.37 45.1578 319.381 45.0483 319.381ZM28.1891 258.178C27.9647 258.508 27.7502 258.853 27.5486 259.206C23.8404 265.701 23.0916 274.78 25.325 286.195C27.2062 295.81 30.7985 304.961 33.4826 310.946C34.8968 314.104 38.0578 316.144 41.5362 316.144H44.8706C46.586 315.741 47.8712 314.565 48.7945 312.553C51.069 307.599 50.9076 298.088 48.3382 285.772C46.0864 274.98 42.5473 265.01 40.3605 261.11C38.7014 258.149 36.7509 256.464 34.5641 256.101C31.5711 255.604 28.8056 257.676 28.1891 258.178Z" fill="#00227B"/>
<path d="M84.6794 316.284C84.4486 316.284 84.2145 316.23 83.9956 316.116C83.2717 315.739 82.9922 314.849 83.3714 314.128C89.5449 302.379 89.636 289.166 83.6423 274.858C79.1214 264.066 72.6477 256.681 72.5827 256.608C72.0431 255.998 72.1016 255.068 72.7138 254.529C73.3261 253.992 74.2602 254.049 74.7998 254.659C75.0762 254.971 81.6203 262.422 86.3363 273.641C89.1191 280.26 90.6708 286.81 90.9504 293.11C91.3015 301.031 89.6327 308.562 85.9906 315.493C85.7262 315.997 85.2115 316.284 84.6794 316.284Z" fill="#00227B"/>
<path d="M186.028 316.284C185.494 316.284 184.981 315.997 184.716 315.494C181.074 308.563 179.405 301.033 179.756 293.111C180.036 286.812 181.588 280.261 184.371 273.642C189.087 262.423 195.631 254.971 195.907 254.66C196.448 254.05 197.382 253.992 197.994 254.53C198.606 255.068 198.665 255.998 198.124 256.608C198.059 256.681 191.585 264.066 187.065 274.858C181.071 289.168 181.162 302.38 187.335 314.128C187.714 314.849 187.434 315.738 186.711 316.116C186.492 316.23 186.258 316.284 186.028 316.284Z" fill="#00227B"/>
<g opacity="0.35">
<path d="M184.046 174.81C182.34 176.754 180.547 178.599 178.679 180.333C174.243 184.446 169.383 187.946 164.184 190.72C155.401 195.413 145.658 198.044 135.397 198.093C125.372 198.137 115.831 195.712 107.182 191.304C101.519 188.412 96.2409 184.677 91.4653 180.225C89.09 178.006 86.8371 175.615 84.7229 173.068C88.5525 171.89 92.3571 170.525 95.841 169.175C100.168 158.793 105.215 148.161 111.1 137.528H159.009C163.873 146.319 168.165 155.106 171.95 163.76C175.559 165.856 179.714 169.803 184.046 174.81Z" fill="#00227B"/>
</g>
<path d="M208.218 127.406C207.383 127.495 206.634 126.894 206.544 126.063L201.868 82.7243C201.779 81.8932 202.382 81.1474 203.217 81.0578C211.969 80.1209 219.827 86.4285 220.767 95.1461L222.363 109.925C223.304 118.643 216.97 126.469 208.218 127.406Z" fill="white"/>
<path d="M208.05 127.788C207.62 127.788 207.205 127.643 206.866 127.37C206.471 127.054 206.225 126.604 206.171 126.103L201.495 82.7641C201.441 82.2633 201.586 81.7711 201.904 81.3793C202.221 80.9875 202.673 80.7414 203.176 80.6875C212.121 79.7301 220.178 86.1984 221.14 95.1071L222.734 109.886C223.2 114.201 221.95 118.439 219.215 121.818C216.481 125.197 212.588 127.314 208.256 127.778L208.216 127.407L208.256 127.778C208.188 127.784 208.118 127.788 208.05 127.788ZM204.93 81.3383C204.377 81.3383 203.819 81.3674 203.256 81.4279C202.952 81.4602 202.679 81.6092 202.487 81.8456C202.295 82.083 202.207 82.3798 202.24 82.6831L206.916 126.022C206.948 126.325 207.098 126.597 207.336 126.788C207.574 126.979 207.872 127.067 208.177 127.034C212.311 126.592 216.024 124.572 218.633 121.348C221.242 118.125 222.434 114.081 221.99 109.964L220.396 95.1848C219.538 87.2464 212.774 81.3383 204.93 81.3383Z" fill="#00227B"/>
<g opacity="0.35">
<g opacity="0.35">
<g opacity="0.35">
<g opacity="0.35">
<path opacity="0.35" d="M221.613 102.995L222.363 109.926C223.302 118.641 216.97 126.469 208.216 127.409C207.382 127.5 206.633 126.893 206.543 126.063L205.296 114.542C205.586 115.042 206.154 115.349 206.766 115.288L207.798 115.175C214.714 114.436 220.123 109.39 221.613 102.995Z" fill="#00227B"/>
</g>
</g>
</g>
</g>
<path d="M208.051 129.492C207.232 129.492 206.443 129.216 205.796 128.696C205.046 128.095 204.577 127.238 204.474 126.285L199.798 82.9465C199.695 81.9934 199.971 81.0566 200.575 80.3097C201.179 79.5628 202.039 79.0955 202.996 78.993C212.876 77.9352 221.781 85.0824 222.843 94.9247L224.437 109.704C224.952 114.471 223.571 119.153 220.55 122.888C217.529 126.621 213.229 128.96 208.441 129.471C208.312 129.484 208.181 129.492 208.051 129.492ZM207.999 125.341H207.998C207.998 125.341 207.998 125.341 207.999 125.341ZM204.007 83.0738L208.559 125.271C212.013 124.761 215.101 123.004 217.305 120.281C219.628 117.411 220.688 113.813 220.293 110.147L218.699 95.3683C217.902 87.9901 211.375 82.5817 204.007 83.0738Z" fill="#00227B"/>
<path d="M59.5921 96.4305C60.4265 96.3409 61.1753 96.9421 61.2653 97.7731L65.9412 141.112C66.0311 141.943 65.4275 142.689 64.5931 142.778C55.8406 143.715 47.9831 137.408 47.0425 128.69L45.4484 113.911C44.5057 105.193 50.8396 97.3673 59.5921 96.4305Z" fill="white"/>
<path d="M62.8769 143.243C54.6564 143.244 47.5661 137.051 46.6688 128.73L45.0748 113.951C44.1136 105.042 50.6079 97.0164 59.5522 96.059L59.5923 96.4303L59.5522 96.059C60.5893 95.9478 61.5256 96.699 61.6372 97.733L66.3131 141.072C66.4247 142.106 65.6705 143.037 64.6324 143.148C64.0439 143.212 63.4566 143.243 62.8769 143.243ZM59.7549 96.794C59.7137 96.794 59.6736 96.7962 59.6314 96.8005C51.0977 97.7136 44.9014 105.371 45.8193 113.871L47.4133 128.65C48.3301 137.15 56.0174 143.321 64.5522 142.408C65.1796 142.341 65.6358 141.778 65.5686 141.153L60.8927 97.814C60.8299 97.229 60.3314 96.794 59.7549 96.794Z" fill="#00227B"/>
<g opacity="0.35">
<g opacity="0.35">
<g opacity="0.35">
<g opacity="0.35">
<path opacity="0.35" d="M64.6472 129.088L65.9432 141.112C66.0342 141.943 65.4252 142.689 64.5919 142.778C59.9973 143.268 55.6454 141.765 52.414 138.961C49.4957 136.429 47.491 132.83 47.0434 128.692L46.3716 122.464C49.4459 127.662 55.3918 130.875 61.8091 130.19L63.3967 130.02C63.9753 129.957 64.4337 129.585 64.6472 129.088Z" fill="#00227B"/>
</g>
</g>
</g>
</g>
<path d="M62.8715 144.946C53.7884 144.948 45.9559 138.106 44.9644 128.911L43.3703 114.132C42.3084 104.29 49.4842 95.4222 59.3659 94.3645C61.3403 94.153 63.1218 95.582 63.3342 97.5496L68.0102 140.889C68.2225 142.858 66.7878 144.63 64.8112 144.842C64.16 144.913 63.512 144.946 62.8715 144.946ZM59.2489 98.5663C51.9452 99.6456 46.7199 106.311 47.5152 113.69L49.1093 128.469C49.9058 135.847 56.4336 141.254 63.8013 140.763L59.2489 98.5663Z" fill="#00227B"/>
<path d="M133.912 186.196C175.099 186.196 208.488 152.94 208.488 111.917C208.488 70.8947 175.099 37.6392 133.912 37.6392C92.7245 37.6392 59.3357 70.8947 59.3357 111.917C59.3357 152.94 92.7245 186.196 133.912 186.196Z" fill="white"/>
<path d="M133.834 186.57C124.69 186.57 115.758 184.937 107.241 181.704C98.1853 178.268 89.981 173.176 82.8539 166.572C75.7268 159.968 70.0377 152.184 65.9427 143.436C61.7035 134.379 59.3693 124.68 59.0041 114.609C58.6389 104.538 60.2655 94.6968 63.8382 85.3586C67.2885 76.3388 72.4011 68.1673 79.0309 61.0687C85.6606 53.97 93.4779 48.3025 102.262 44.2238C111.356 40.0016 121.093 37.6767 131.205 37.313C141.316 36.9493 151.197 38.5693 160.573 42.1278C169.629 45.5643 177.833 50.6565 184.96 57.2598C192.087 63.8641 197.776 71.6481 201.871 80.3959C206.11 89.4535 208.445 99.1522 208.81 109.223C209.175 119.294 207.548 129.135 203.976 138.474C200.525 147.493 195.413 155.665 188.782 162.764C182.151 169.862 174.336 175.529 165.553 179.607C156.459 183.83 146.721 186.154 136.61 186.518C135.681 186.553 134.756 186.57 133.834 186.57ZM133.941 38.0102C133.039 38.0102 132.14 38.0264 131.231 38.0588C90.343 39.5288 58.2781 73.8563 59.7529 114.581C60.467 134.309 68.8522 152.579 83.3632 166.025C97.2024 178.85 115.036 185.822 133.839 185.823C134.752 185.823 135.664 185.807 136.581 185.773C156.388 185.062 174.731 176.71 188.231 162.257C201.731 147.804 208.773 128.98 208.059 109.252C206.618 69.4322 173.629 38.0102 133.941 38.0102Z" fill="#00227B"/>
<g opacity="0.35">
<g opacity="0.35">
<g opacity="0.35">
<g opacity="0.35">
<path opacity="0.35" d="M207.351 98.9893C207.947 102.329 208.312 105.75 208.439 109.239C209.918 150.235 177.757 184.667 136.597 186.149C95.437 187.622 60.8667 155.59 59.3789 114.595C59.3355 113.416 59.3204 112.236 59.3344 111.071C65.6672 147.025 97.8047 173.727 135.464 172.375C175.441 170.936 206.924 138.418 207.351 98.9893Z" fill="#00227B"/>
</g>
</g>
</g>
</g>
<path d="M133.842 188.273C124.489 188.273 115.353 186.603 106.642 183.297C97.3797 179.781 88.9869 174.574 81.6983 167.819C74.4098 161.065 68.5906 153.103 64.4024 144.155C60.0656 134.891 57.6784 124.97 57.3056 114.67C56.9328 104.37 58.5962 94.3031 62.2513 84.7512C65.7808 75.5263 71.0093 67.1671 77.7907 59.9076C84.5722 52.6482 92.564 46.8512 101.548 42.6807C110.85 38.3613 120.811 35.9836 131.152 35.6123C141.495 35.241 151.601 36.8978 161.191 40.5383C170.453 44.0536 178.846 49.2613 186.134 56.0156C193.423 62.7699 199.242 70.732 203.43 79.6795C207.767 88.9443 210.154 98.8654 210.527 109.165C210.9 119.465 209.236 129.532 205.581 139.084C202.052 148.309 196.823 156.668 190.042 163.927C183.26 171.187 175.266 176.983 166.283 181.154C156.981 185.474 147.02 187.851 136.679 188.223C135.732 188.256 134.785 188.273 133.842 188.273ZM133.95 39.7148C133.069 39.7148 132.191 39.7309 131.303 39.7622C91.3568 41.1977 60.031 74.7341 61.4722 114.521C62.1701 133.794 70.3624 151.643 84.5386 164.78C98.0591 177.309 115.481 184.121 133.852 184.121C134.743 184.121 135.635 184.105 136.531 184.073C155.881 183.378 173.801 175.218 186.991 161.098C200.181 146.979 207.06 128.589 206.361 109.315C204.952 70.4115 172.723 39.7148 133.95 39.7148Z" fill="#00227B"/>
<path d="M208.27 111.154C209.017 125.67 204.978 139.389 197.461 150.951C191.825 159.621 167.641 175.523 136.864 177.369C108.326 179.081 81.5699 165.244 75.0746 157.194C66.4098 146.456 60.9862 133.221 60.2395 118.705C58.2641 80.2911 90.5815 62.6756 131.462 60.5904C172.34 58.5052 206.295 72.7402 208.27 111.154Z" fill="#3949AB"/>
<path d="M131.909 178.944C117.719 178.944 105.377 175.421 97.1849 172.274C86.8112 168.289 77.6924 162.721 73.9549 158.088C64.7819 146.721 59.5436 133.127 58.8057 118.778C58.3158 109.256 59.8925 100.616 63.4891 93.0975C66.8755 86.0216 72.0694 79.8911 78.9289 74.8744C91.4601 65.7089 109.599 60.2767 131.385 59.1661C153.171 58.0555 171.772 61.6129 185.178 69.4552C192.515 73.7476 198.311 79.318 202.405 86.0129C206.755 93.1256 209.209 101.56 209.698 111.082C210.436 125.432 206.618 139.486 198.66 151.728C195.354 156.814 187.141 163.048 177.229 167.995C168.522 172.342 154.465 177.744 136.947 178.794C135.246 178.895 133.564 178.944 131.909 178.944ZM139.077 61.8201C136.61 61.8201 134.096 61.8849 131.532 62.0155C110.307 63.098 92.7041 68.3403 80.6247 77.1744C67.1388 87.0383 60.7605 100.987 61.6675 118.632C62.3741 132.378 67.3957 145.404 76.1883 156.301C78.8042 159.543 86.1426 164.974 98.2166 169.612C107.099 173.024 120.998 176.892 136.776 175.946C153.809 174.923 167.48 169.67 175.947 165.444C187.294 159.78 193.98 153.679 196.258 150.177C203.887 138.443 207.546 124.974 206.84 111.228C205.933 93.5832 198.156 80.3562 183.729 71.916C172.367 65.2696 157.039 61.8201 139.077 61.8201Z" fill="#00227B"/>
<g opacity="0.5">
<g opacity="0.5">
<g opacity="0.5">
<g opacity="0.5">
<path d="M193.42 108.378C194.351 101.177 190.859 94.7959 185.62 94.1242C180.382 93.4524 175.381 98.7448 174.45 105.945C173.52 113.145 177.012 119.527 182.25 120.199C187.488 120.87 192.489 115.578 193.42 108.378Z" fill="white"/>
</g>
</g>
</g>
</g>
<g opacity="0.5">
<g opacity="0.5">
<g opacity="0.5">
<g opacity="0.5">
<path d="M178.599 135.141C179.48 131.927 177.95 128.71 175.181 127.956C172.412 127.203 169.452 129.197 168.57 132.411C167.688 135.626 169.218 138.842 171.988 139.596C174.757 140.35 177.717 138.355 178.599 135.141Z" fill="white"/>
</g>
</g>
</g>
</g>
<g opacity="0.35">
<path d="M192.032 76.052C201.522 84.19 207.473 95.7246 208.269 111.152C209.015 125.671 204.975 139.389 197.463 150.952C191.825 159.621 167.639 175.523 136.861 177.372C125.995 178.028 115.389 176.424 106.057 173.739C143.84 170.663 173.292 151.157 180.282 140.405C189.824 125.73 194.949 108.316 193.998 89.8963C193.749 84.9725 193.074 80.3628 192.032 76.052Z" fill="#00227B"/>
</g>
<path d="M64.1303 87.662C63.7099 87.662 63.2873 87.5314 62.9253 87.2605C62.0736 86.6215 61.8774 85.4375 62.4572 84.5644C65.5521 79.5002 69.5041 74.8721 74.2028 70.8096C78.7779 66.855 84.0986 63.4023 90.0163 60.5475C95.8105 57.7532 102.215 55.5147 109.05 53.8936C115.824 52.2875 123.055 51.2795 130.546 50.8974C137.912 50.5218 145.13 50.7754 151.999 51.6497C158.931 52.5325 165.522 54.0511 171.587 56.1612C177.793 58.3209 183.472 61.1098 188.465 64.4503C193.598 67.8847 198.038 71.9235 201.664 76.4555C202.297 77.1538 202.362 78.2234 201.769 79.0005C201.099 79.8791 199.841 80.0496 198.959 79.3826L198.749 79.2272L198.591 79.0264C185.165 62.1719 160.438 53.3733 130.75 54.8876C100.898 56.4105 77.2445 68.0023 65.8533 86.6906L65.8013 86.7759L65.733 86.8655C65.3408 87.3868 64.7393 87.662 64.1303 87.662Z" fill="#00227B"/>
<g opacity="0.5">
<g opacity="0.5">
<g opacity="0.5">
<g opacity="0.5">
<path d="M78.0384 140.709C78.0384 140.709 64.145 103.423 83.8738 87.2758C103.603 71.1282 133.107 69.6852 132.514 71.6042C132.514 71.6042 100.26 81.1453 88.8022 107.513C79.9673 127.846 78.0384 140.709 78.0384 140.709Z" fill="white"/>
</g>
</g>
</g>
</g>
<path d="M201.491 322.036H69.226C64.9434 322.036 61.4714 318.578 61.4714 314.312C61.4714 311.855 63.4718 309.862 65.9393 309.862H204.777C207.245 309.862 209.245 311.855 209.245 314.312C209.245 318.579 205.773 322.036 201.491 322.036Z" fill="#E6E9FA"/>
<g opacity="0.3">
<g opacity="0.3">
<g opacity="0.3">
<g opacity="0.3">
<path opacity="0.3" d="M209.243 314.313C209.243 315.157 209.106 315.968 208.854 316.729C208.16 315.173 206.597 314.093 204.779 314.093H65.9404C64.7083 314.093 63.59 314.589 62.7816 315.399C62.3969 315.782 62.0815 316.229 61.8605 316.73C61.6091 315.969 61.4714 315.16 61.4714 314.314C61.4714 313.087 61.9688 311.973 62.7826 311.168C63.591 310.359 64.7094 309.862 65.9415 309.862H204.779C207.247 309.861 209.243 311.854 209.243 314.313Z" fill="white"/>
</g>
</g>
</g>
</g>
<g opacity="0.35">
<g opacity="0.35">
<g opacity="0.35">
<g opacity="0.35">
<path opacity="0.35" d="M209.244 314.313C209.244 316.444 208.377 318.378 206.972 319.771C205.572 321.17 203.63 322.035 201.492 322.035H69.2292C64.9467 322.035 61.4714 318.579 61.4714 314.313C61.4714 313.493 61.6936 312.723 62.0869 312.06C63.2594 314.824 66.0195 316.768 69.2281 316.768H201.491C203.63 316.768 205.572 315.904 206.971 314.504C207.671 313.807 208.237 312.978 208.626 312.06C209.023 312.723 209.244 313.493 209.244 314.313Z" fill="#00227B"/>
</g>
</g>
</g>
</g>
<path d="M201.497 324H69.2327C63.8698 324 59.5071 319.655 59.5071 314.313C59.5071 310.777 62.3961 307.9 65.9461 307.9H204.784C208.334 307.9 211.223 310.777 211.223 314.313C211.223 319.654 206.86 324 201.497 324ZM65.945 311.826C64.5688 311.826 63.4483 312.941 63.4483 314.313C63.4483 317.49 66.0425 320.073 69.2317 320.073H201.497C204.687 320.073 207.281 317.49 207.281 314.313C207.281 312.942 206.161 311.826 204.784 311.826H65.945Z" fill="#00227B"/>
<path d="M216.971 222.907L204.034 309.86H66.695L66.2268 306.714L53.752 222.907C53.3434 220.154 55.4869 217.685 58.2762 217.685H212.445C215.241 217.685 217.379 220.154 216.971 222.907Z" fill="#FF66AC"/>
<path d="M216.971 222.907L204.034 309.86H66.695L66.2268 306.714L53.752 222.907C53.3434 220.154 55.4869 217.685 58.2762 217.685H212.445C215.241 217.685 217.379 220.154 216.971 222.907Z" fill="#E6E9FA"/>
<g opacity="0.5">
<g opacity="0.5">
<g opacity="0.5">
<g opacity="0.5">
<path opacity="0.5" d="M58.6265 228.305C58.218 225.552 60.3614 223.083 63.1507 223.083H216.943L216.969 222.909C217.378 220.156 215.24 217.686 212.445 217.686H58.2754C55.4862 217.686 53.3427 220.156 53.7512 222.909L66.225 306.715L66.6932 309.861H70.7666L58.6265 228.305Z" fill="white"/>
</g>
</g>
</g>
</g>
<g opacity="0.35">
<g opacity="0.35">
<g opacity="0.35">
<g opacity="0.35">
<path opacity="0.35" d="M208.112 217.684H197.287C201.391 232.663 199.127 266.486 172.645 284.163C139.401 306.354 79.4886 306.213 66.7688 306.713L67.2369 309.86H199.7L212.636 222.907C213.045 220.154 210.907 217.684 208.112 217.684Z" fill="#00227B"/>
</g>
</g>
</g>
</g>
<path d="M205.736 311.827H64.9968L51.8079 223.195C51.5283 221.318 52.082 219.418 53.326 217.982C54.5701 216.545 56.3765 215.721 58.2804 215.721H212.452C214.357 215.721 216.162 216.545 217.406 217.982C218.65 219.418 219.204 221.318 218.925 223.195L205.736 311.827ZM68.3984 307.899H202.334L215.025 222.618C215.137 221.862 214.923 221.126 214.421 220.546C213.919 219.966 213.22 219.648 212.452 219.648H58.2804C57.5121 219.648 56.8132 219.967 56.3115 220.546C55.8097 221.126 55.5952 221.862 55.7079 222.618L68.3984 307.899Z" fill="#00227B"/>
<g opacity="0.3">
<g opacity="0.3">
<g opacity="0.3">
<g opacity="0.3">
<path opacity="0.3" d="M77.6297 289.545C72.4195 278.107 68.6257 258.581 69.4807 247.089C70.3357 235.598 77.0272 239.114 79.1012 253.834C84.6202 293.009 79.9552 294.652 77.6297 289.545Z" fill="white"/>
</g>
</g>
</g>
</g>
<path d="M153.309 253.907C153.477 252.439 153.672 250.955 153.382 249.462C153.253 249.301 153.135 249.134 153.006 248.972C152.579 248.819 152.164 248.619 151.72 248.508C148.595 247.704 145.426 247.386 142.208 247.662C138.011 248.023 134.158 249.312 130.846 251.97C129.646 252.928 128.553 254.011 127.433 255.061C127.133 255.346 126.902 255.465 126.481 255.272C125.489 254.823 124.421 254.623 123.336 254.569C120.427 254.437 117.83 255.374 115.408 256.888C112.784 258.535 110.668 260.736 108.698 263.092C107.86 264.09 108.186 265.203 109.434 265.623C110.222 265.879 111.01 266.13 111.798 266.387C113.685 266.996 115.569 267.599 117.451 268.207C117.447 268.265 117.452 268.295 117.443 268.325C117.428 268.361 117.412 268.403 117.386 268.439C116.6 269.445 116.791 270.375 117.619 271.249C117.708 271.347 117.785 271.462 117.863 271.567C118.296 272.135 118.739 272.709 119.199 273.3C118.571 273.783 117.955 274.193 117.41 274.688C117.134 274.938 116.892 275.3 116.788 275.66C116.611 276.239 116.912 276.832 117.43 277.136C117.98 277.465 118.545 277.451 119.057 277.084C119.706 276.624 120.326 276.126 120.986 275.624C121.609 276.442 122.199 277.216 122.792 277.98C123.472 278.851 123.94 279 124.993 278.71C125.185 278.65 125.374 278.609 125.601 278.554C125.616 278.779 125.633 278.959 125.643 279.127C125.778 281.839 125.901 284.554 126.051 287.258C126.119 288.54 127.135 289.146 128.298 288.596C129.348 288.103 130.397 287.581 131.427 287.025C133.799 285.739 135.957 284.166 137.679 282.073C139.835 279.439 141.028 276.498 140.47 273.023C140.446 272.886 140.561 272.652 140.68 272.581C141.737 271.902 142.823 271.267 143.882 270.582C146.275 269.029 148.198 267.011 149.702 264.6C151.746 261.322 152.874 257.726 153.309 253.907ZM119.008 265.639C116.829 264.932 114.569 264.198 112.248 263.446C114.646 260.907 117.184 258.691 120.602 257.755C122.079 257.35 123.786 257.385 124.794 257.793C122.88 260.394 120.962 262.995 119.008 265.639ZM137.338 276.796C136.784 278.556 135.727 279.99 134.424 281.268C132.805 282.838 130.921 284.01 128.883 285.079C128.761 282.586 128.635 280.146 128.512 277.758C131.592 276.564 134.605 275.399 137.633 274.227C137.75 275.058 137.607 275.939 137.338 276.796ZM148.714 260.103C147.722 262.434 146.422 264.556 144.567 266.313C143.135 267.661 141.512 268.742 139.802 269.704C135.166 272.31 130.198 274.108 125.118 275.627C124.87 275.698 124.718 275.685 124.554 275.459C124.2 274.957 123.802 274.473 123.427 273.978C123.402 273.95 123.394 273.904 123.358 273.815C123.488 273.711 123.627 273.609 123.766 273.502C126.665 271.285 129.578 269.076 132.478 266.855C133.315 266.221 133.352 265.132 132.576 264.504C132.035 264.062 131.32 264.069 130.695 264.537C128.951 265.863 127.21 267.188 125.47 268.519C124.172 269.507 122.884 270.492 121.536 271.521C121.074 270.919 120.627 270.37 120.224 269.791C120.156 269.688 120.225 269.427 120.318 269.298C121.863 267.001 123.396 264.693 125.004 262.436C126.595 260.195 128.403 258.125 130.393 256.225C132.258 254.431 134.28 252.846 136.723 251.902C138.29 251.294 139.907 250.881 141.577 250.703C141.729 250.681 141.949 250.832 142.056 250.971C143.754 253.158 145.432 255.348 147.114 257.542C147.619 258.195 148.118 258.861 148.638 259.507C148.794 259.701 148.814 259.867 148.714 260.103ZM149.721 257.045C148.043 254.856 146.405 252.726 144.764 250.587C144.766 250.539 144.78 250.481 144.788 250.428C146.698 250.656 148.613 250.889 150.547 251.12C150.512 253.196 150.204 255.096 149.721 257.045Z" fill="#00227B"/>
<path d="M148.64 259.505C148.119 258.86 147.621 258.194 147.116 257.541C145.434 255.347 143.756 253.157 142.058 250.97C141.951 250.831 141.731 250.68 141.579 250.702C139.909 250.88 138.292 251.293 136.725 251.901C134.281 252.845 132.26 254.429 130.395 256.224C128.405 258.124 126.596 260.194 125.006 262.435C123.398 264.693 121.865 267.001 120.32 269.297C120.227 269.425 120.157 269.687 120.226 269.79C120.628 270.369 121.074 270.918 121.538 271.52C122.886 270.491 124.173 269.505 125.472 268.518C127.212 267.187 128.952 265.86 130.697 264.536C131.322 264.068 132.035 264.062 132.578 264.503C133.354 265.132 133.318 266.221 132.48 266.853C129.58 269.075 126.667 271.284 123.768 273.501C123.628 273.608 123.489 273.71 123.36 273.814C123.395 273.903 123.404 273.949 123.429 273.977C123.804 274.472 124.202 274.956 124.556 275.458C124.72 275.684 124.871 275.697 125.119 275.626C130.2 274.106 135.168 272.309 139.804 269.703C141.513 268.742 143.137 267.66 144.569 266.312C146.423 264.554 147.724 262.433 148.716 260.102C148.813 259.867 148.794 259.701 148.64 259.505ZM143.552 262.847C141.336 264.51 138.2 264.103 136.536 261.926C134.86 259.753 135.283 256.631 137.478 254.945C139.634 253.292 142.771 253.719 144.452 255.894C146.113 258.056 145.708 261.224 143.552 262.847Z" fill="white"/>
<path d="M149.717 257.044C148.039 254.858 146.4 252.726 144.76 250.587C144.766 250.536 144.777 250.484 144.784 250.428C146.695 250.658 148.611 250.89 150.547 251.121C150.51 253.194 150.199 255.096 149.717 257.044Z" fill="#DB2C2C"/>
<path d="M124.791 257.794C122.875 260.392 120.957 262.995 119.006 265.641C116.823 264.93 114.564 264.198 112.244 263.447C114.644 260.905 117.181 258.688 120.599 257.755C122.076 257.349 123.78 257.385 124.791 257.794Z" fill="#DB2C2C"/>
<path d="M134.416 281.268C132.798 282.839 130.916 284.012 128.876 285.079C128.753 282.588 128.628 280.148 128.506 277.758C131.586 276.565 134.598 275.401 137.63 274.226C137.746 275.059 137.6 275.938 137.334 276.798C136.78 278.558 135.723 279.991 134.416 281.268Z" fill="#DB2C2C"/>
<path d="M144.452 255.894C142.772 253.719 139.634 253.293 137.479 254.945C135.283 256.632 134.861 259.753 136.536 261.926C138.201 264.103 141.337 264.51 143.553 262.847C145.709 261.224 146.114 258.056 144.452 255.894ZM142.059 261.011C140.937 261.858 139.287 261.635 138.413 260.518C137.508 259.366 137.755 257.674 138.953 256.789C140.074 255.951 141.755 256.194 142.599 257.317C143.481 258.484 143.238 260.124 142.059 261.011Z" fill="#00227B"/>
<path d="M142.05 261.011C140.928 261.859 139.278 261.635 138.402 260.516C137.501 259.367 137.745 257.674 138.942 256.789C140.066 255.954 141.745 256.193 142.589 257.315C143.471 258.484 143.231 260.125 142.05 261.011Z" fill="#22A7F0"/>
<path d="M216.286 227.495C216.286 227.495 205.642 222.465 195.647 226.977C186.075 231.299 179.303 262.066 191.704 269.859C199.358 274.67 204.568 270.421 208.899 271.668C215.321 273.518 228.498 241.839 216.286 227.495Z" fill="white"/>
<g opacity="0.35">
<path d="M221.092 247.518C219.83 260.414 212.995 272.847 208.904 271.669C204.572 270.422 199.363 274.673 191.709 269.862C185.785 266.136 184.237 257.174 185.282 248.347C185.986 253.496 187.982 257.909 191.709 260.251C199.363 265.056 204.459 262.823 208.904 262.058C214.399 261.11 218.879 255.132 221.092 247.518Z" fill="#00227B"/>
<path d="M199.559 274.176C196.977 274.176 193.988 273.613 190.658 271.52C187.677 269.647 185.524 266.615 184.259 262.509C183.197 259.064 182.801 254.866 183.11 250.368C183.478 245.042 184.793 239.577 186.812 234.982C188.355 231.471 191 226.921 194.838 225.189C205.543 220.356 216.668 225.5 217.136 225.721L217.519 225.902L217.793 226.225C223.383 232.789 223.706 241.859 222.992 248.31C222.188 255.579 219.612 263.29 216.269 268.434C212.92 273.585 210.117 274.062 208.355 273.555C207.212 273.226 205.767 273.456 204.094 273.722C202.772 273.934 201.253 274.176 199.559 274.176ZM204.764 227.056C201.767 227.056 198.99 227.627 196.467 228.767C194.392 229.704 192.189 232.543 190.426 236.557C188.61 240.689 187.378 245.821 187.045 250.639C186.458 259.146 188.542 265.548 192.762 268.201C197.018 270.875 200.3 270.352 203.473 269.845C205.524 269.518 207.462 269.21 209.453 269.783C209.681 269.823 211.322 269.192 213.635 265.2C219.031 255.891 222.453 238.31 215.071 229.107C214.235 228.76 212.082 227.945 209.264 227.458C207.716 227.19 206.214 227.056 204.764 227.056Z" fill="#00227B"/>
</g>
<path d="M246.049 115.5C242.253 111.592 239.662 106.462 238.971 100.646C237.292 86.5274 247.422 73.7268 261.597 72.0549C275.772 70.383 288.624 80.4725 290.303 94.5909C291.981 108.709 281.852 121.51 267.676 123.182C263.734 123.647 259.895 123.199 256.369 122.011L245.283 127.22L246.049 115.5Z" fill="#FF0068"/>
<g opacity="0.5">
<path opacity="0.5" d="M262.185 76.9714C248.944 78.5331 239.235 89.8066 239.381 102.793C239.178 101.908 239.017 101.006 238.906 100.085C237.228 85.9664 247.358 73.1657 261.533 71.4939C275.708 69.822 288.56 79.9114 290.238 94.0299C290.349 94.956 290.405 95.8745 290.416 96.7865C287.518 84.1186 275.43 75.4096 262.185 76.9714Z" fill="white"/>
</g>
<path d="M245.283 129.108C244.908 129.108 244.535 128.998 244.215 128.781C243.66 128.405 243.346 127.765 243.39 127.096L244.104 116.194C240.195 111.921 237.774 106.64 237.087 100.867C236.216 93.5374 238.262 86.3092 242.849 80.5122C247.436 74.7163 254.015 71.0456 261.374 70.1778C268.733 69.3101 275.99 71.3478 281.809 75.9165C287.628 80.4853 291.313 87.0378 292.185 94.3674C293.056 101.697 291.01 108.925 286.423 114.721C281.836 120.517 275.257 124.188 267.898 125.055C264.024 125.512 260.192 125.169 256.498 124.035L246.091 128.926C245.834 129.049 245.558 129.108 245.283 129.108ZM264.654 73.7633C263.718 73.7633 262.773 73.8183 261.82 73.9306C255.468 74.6796 249.788 77.8485 245.828 82.8522C241.868 87.8559 240.101 94.0965 240.854 100.423C241.475 105.649 243.743 110.409 247.412 114.187C247.784 114.57 247.977 115.091 247.941 115.623L247.383 124.145L255.558 120.303C256.002 120.095 256.51 120.066 256.975 120.222C260.358 121.363 263.883 121.728 267.453 121.307C280.567 119.76 289.972 107.875 288.419 94.8142C286.979 82.7 276.612 73.7633 264.654 73.7633Z" fill="#00227B"/>
<g opacity="0.3">
<path opacity="0.3" d="M245.856 115.291C254.072 119.571 264.162 119.998 273.086 115.548C282.983 110.613 288.919 100.943 289.529 90.6753C289.883 91.9402 290.145 93.2462 290.305 94.591C291.983 108.71 281.853 121.51 267.678 123.182C263.736 123.647 259.897 123.199 256.371 122.011L245.285 127.22L246.052 115.501C245.985 115.431 245.922 115.36 245.856 115.291Z" fill="#00227B"/>
</g>
<path d="M256.471 90.3895C258.708 88.1618 262.335 88.5611 264.571 90.7888L264.919 91.1353L265.267 90.7888C267.504 88.5611 271.13 88.1618 273.367 90.3895C275.604 92.6172 275.604 96.2296 273.367 98.4573L273.019 98.8038L265.988 105.807C265.398 106.395 264.442 106.395 263.852 105.807L256.82 98.8038L256.472 98.4573C254.234 96.2286 254.234 92.6172 256.471 90.3895Z" fill="white"/>
</svg>
