<svg width="26" height="27" viewBox="0 0 26 27" fill="none" xmlns="http://www.w3.org/2000/svg">
<path d="M9.19195 24.7373V20.7376C9.19195 19.7166 10.0257 18.8889 11.0542 18.8889H14.8138C15.3077 18.8889 15.7814 19.0837 16.1306 19.4304C16.4799 19.7771 16.6761 20.2473 16.6761 20.7376V24.7373C16.6729 25.1618 16.8406 25.57 17.1419 25.8712C17.4431 26.1725 17.853 26.3419 18.2806 26.3419H20.8456C22.0436 26.345 23.1935 25.8747 24.0417 25.0349C24.8899 24.195 25.3665 23.0547 25.3665 21.8654V10.4709C25.3665 9.51023 24.9376 8.599 24.1953 7.98268L15.4697 1.06455C13.9519 -0.148434 11.7771 -0.109269 10.3046 1.15757L1.7781 7.98268C1.00075 8.58084 0.536143 9.49476 0.513184 10.4709V21.8538C0.513184 24.3325 2.53727 26.3419 5.0341 26.3419H7.54052C8.42862 26.3419 9.15037 25.6306 9.15681 24.749L9.19195 24.7373Z" fill="#5D7285"/>
</svg>
