<svg width="31" height="31" viewBox="0 0 31 31" fill="none" xmlns="http://www.w3.org/2000/svg">
<g id="Guest" clip-path="url(#clip0_1_9523)">
<path id="Shape" d="M16.2344 8.90278C13.8157 8.90278 11.855 10.8635 11.855 13.2821C11.855 15.7008 13.8157 17.6615 16.2344 17.6615C18.653 17.6615 20.6137 15.7008 20.6137 13.2821C20.6137 10.8635 18.653 8.90278 16.2344 8.90278ZM12.1054 18.9127C11.0292 18.9127 9.85801 19.6665 9.82714 21.0047C9.80552 21.942 9.97324 23.3229 10.9465 24.4777C11.9432 25.6604 13.6245 26.4202 16.2344 26.4202C18.8442 26.4202 20.5255 25.6604 21.5222 24.4777C22.4955 23.3229 22.6632 21.942 22.6416 21.0047C22.6107 19.6665 21.4395 18.9127 20.3633 18.9127H12.1054ZM22.3611 2.64654H24.0547C25.955 2.64654 27.4956 4.1871 27.4956 6.08747V26.733C27.4956 28.6334 25.955 30.174 24.0547 30.174H8.41407C6.5137 30.174 4.97314 28.6334 4.97314 26.733V6.08747C4.97314 4.1871 6.5137 2.64654 8.41407 2.64654H10.1077C10.5161 1.20229 11.844 0.144051 13.4191 0.144051H19.0497C20.6247 0.144051 21.9526 1.20229 22.3611 2.64654ZM10.1077 4.52341H8.41407C7.55027 4.52341 6.85001 5.22367 6.85001 6.08747V26.733C6.85001 27.5968 7.55027 28.2971 8.41407 28.2971H24.0547C24.9185 28.2971 25.6187 27.5968 25.6187 26.733V6.08747C25.6187 5.22367 24.9185 4.52341 24.0547 4.52341H22.3611C21.9526 5.96767 20.6247 7.02591 19.0497 7.02591H13.4191C11.844 7.02591 10.5161 5.96767 10.1077 4.52341ZM11.855 3.58498C11.855 4.44878 12.5553 5.14904 13.4191 5.14904H19.0497C19.9135 5.14904 20.6137 4.44878 20.6137 3.58498C20.6137 2.72117 19.9135 2.02092 19.0497 2.02092H13.4191C12.5553 2.02092 11.855 2.72117 11.855 3.58498Z" fill="#5D7285"/>
</g>
<defs>
<clipPath id="clip0_1_9523">
<rect width="30.0299" height="30.0299" fill="white" transform="translate(0.684082 0.144051)"/>
</clipPath>
</defs>
</svg>
