<svg xmlns="http://www.w3.org/2000/svg" width="27" height="26" viewBox="0 0 27 26" fill="none">
<g id="Wallet Credit Card">
<path id="Shape" d="M16.5516 2.88072C16.6494 2.75377 16.8315 2.73689 16.9501 2.84378L17.9646 3.7584L14.77 7.8409H16.8859L19.2052 4.87691L21.025 6.51759C21.137 6.61849 21.1499 6.79218 21.0542 6.90926L20.2928 7.8409H22.4344C22.9785 7.02889 22.8543 5.91465 22.1178 5.25064L18.0428 1.57684C17.2129 0.828594 15.9385 0.946733 15.2538 1.8354L10.6261 7.8409H12.7295L16.5516 2.88072ZM6.5218 7.27784C6.06555 7.27784 5.69568 7.65598 5.69568 8.12243C5.69568 8.58889 6.06555 8.96702 6.5218 8.96702L20.8411 8.96702C22.8182 8.96702 24.4209 10.6056 24.4209 12.6269V19.9467C24.4209 21.968 22.8182 23.6066 20.8411 23.6066H7.62328C5.6462 23.6066 4.04346 21.968 4.04346 19.9467V8.12243C4.04346 6.72307 5.15305 5.58866 6.5218 5.58866H11.2802L9.96772 7.27784H6.5218ZM17.812 16.5683C17.812 17.0348 18.1819 17.4129 18.6381 17.4129H20.8411C21.2973 17.4129 21.6672 17.0348 21.6672 16.5683C21.6672 16.1019 21.2973 15.7238 20.8411 15.7238H18.6381C18.1819 15.7238 17.812 16.1019 17.812 16.5683Z" fill="#5d7285"/>
</g>
</svg>