<svg width="48" height="48" viewBox="0 0 48 48" fill="none" xmlns="http://www.w3.org/2000/svg">
<path d="M23.8724 26.9454C28.3606 26.9454 32.193 27.657 32.193 30.5043C32.193 33.3505 28.3852 34.088 23.8724 34.088C19.3842 34.088 15.5518 33.3764 15.5518 30.5303C15.5518 27.6829 19.3596 26.9454 23.8724 26.9454ZM31.0485 25.2309C32.7644 25.1991 34.6091 25.4347 35.2908 25.602C36.735 25.8859 37.6848 26.4655 38.0784 27.3078C38.411 27.9993 38.411 28.8016 38.0784 29.4919C37.4764 30.7984 35.5356 31.2178 34.7813 31.3261C34.6255 31.3497 34.5002 31.2142 34.5166 31.0576C34.9019 27.4374 31.8368 25.721 31.0438 25.3263C31.0099 25.3086 31.0029 25.2815 31.0064 25.265C31.0087 25.2533 31.0228 25.2344 31.0485 25.2309ZM16.5074 25.2284L16.8305 25.2314C16.8563 25.2349 16.8691 25.2537 16.8715 25.2643C16.875 25.282 16.868 25.3079 16.8352 25.3268C16.0411 25.7214 12.9759 27.4379 13.3612 31.0568C13.3776 31.2147 13.2535 31.349 13.0977 31.3266C12.3434 31.2182 10.4027 30.7989 9.80065 29.4924C9.46684 28.8009 9.46684 27.9998 9.80065 27.3083C10.1942 26.466 11.1429 25.8864 12.5871 25.6013C13.2699 25.4352 15.1134 25.1995 16.8305 25.2314L16.5074 25.2284ZM23.8724 13.1589C26.9282 13.1589 29.3784 15.621 29.3784 18.6957C29.3784 21.7693 26.9282 24.2338 23.8724 24.2338C20.8166 24.2338 18.3664 21.7693 18.3664 18.6957C18.3664 15.621 20.8166 13.1589 23.8724 13.1589ZM31.3472 14.0822C34.2988 14.0822 36.6167 16.8754 35.8272 19.9866C35.2943 22.0812 33.3653 23.4725 31.216 23.416C31.0005 23.4101 30.7885 23.39 30.5835 23.3547C30.4348 23.3288 30.3598 23.1603 30.4442 23.0355C31.264 21.8221 31.7314 20.3624 31.7314 18.7956C31.7314 17.1605 31.2207 15.6361 30.3341 14.3862C30.306 14.3473 30.2849 14.2872 30.313 14.2424C30.3364 14.2059 30.3798 14.1871 30.4207 14.1776C30.7194 14.1164 31.0263 14.0822 31.3472 14.0822ZM16.5301 14.0821C16.851 14.0821 17.1579 14.1163 17.4577 14.1775C17.4975 14.1869 17.542 14.207 17.5655 14.2423C17.5924 14.2871 17.5725 14.3472 17.5444 14.386C16.6577 15.636 16.1471 17.1604 16.1471 18.7955C16.1471 20.3623 16.6144 21.8219 17.4343 23.0353C17.5186 23.1602 17.4436 23.3287 17.2949 23.3546C17.0888 23.3911 16.8779 23.41 16.6624 23.4158C14.5132 23.4724 12.5841 22.0811 12.0512 19.9865C11.2606 16.8753 13.5785 14.0821 16.5301 14.0821Z" fill="#5D7285"/>
</svg>
