<svg width="33" height="32" viewBox="0 0 33 32" fill="none" xmlns="http://www.w3.org/2000/svg">
<g id="Group 259">
<circle id="Ellipse 24" cx="16.4" cy="15.7418" r="15.7418" fill="white"/>
<path id="Vector" fill-rule="evenodd" clip-rule="evenodd" d="M24.795 10.0124C24.1663 10.291 23.4994 10.4737 22.8165 10.5544C23.5358 10.1241 24.0741 9.44701 24.3312 8.64937C23.6549 9.05075 22.915 9.33363 22.1434 9.48581C21.6247 8.93211 20.9377 8.56506 20.1889 8.44165C19.4401 8.31823 18.6716 8.44536 18.0025 8.80328C17.3334 9.16121 16.8012 9.72992 16.4886 10.4211C16.176 11.1123 16.1003 11.8874 16.2735 12.6259C14.9036 12.5575 13.5634 12.2017 12.3401 11.5817C11.1168 10.9616 10.0377 10.0912 9.17288 9.02703C8.86637 9.55262 8.70531 10.1503 8.70622 10.7586C8.70622 11.9532 9.3142 13.0078 10.2391 13.6253C9.69208 13.6076 9.15708 13.4602 8.67823 13.1952V13.2372C8.67813 14.0325 8.95328 14.8033 9.457 15.4188C9.96072 16.0344 10.662 16.4568 11.4418 16.6144C10.9343 16.7517 10.4023 16.772 9.8858 16.6738C10.1059 17.3581 10.5344 17.9565 11.1115 18.3853C11.6885 18.8142 12.3852 19.052 13.1041 19.0657C11.8837 20.0225 10.3769 20.5414 8.82586 20.5392C8.5474 20.5392 8.27314 20.5231 8.00378 20.4917C9.57911 21.5031 11.4123 22.0402 13.2846 22.0386C19.6212 22.0386 23.0858 16.7913 23.0858 12.2406C23.0858 12.0916 23.0823 11.9434 23.076 11.7958C23.7505 11.3082 24.3326 10.7043 24.795 10.0124Z" fill="#06163A"/>
</g>
</svg>
