<svg width="205" height="29" viewBox="0 0 205 29" fill="none" xmlns="http://www.w3.org/2000/svg">
<path d="M0.902344 28.4639V27.0373L20.6767 1.75459L20.8749 2.54715H1.14011V0.724264H22.8167V2.15087L3.08189 27.4336L2.84412 26.641H23.2526V28.4639H0.902344Z" fill="white"/>
<path d="M40.9146 28.662C38.8539 28.662 36.9386 28.3186 35.1685 27.6317C33.4249 26.9184 31.8926 25.9277 30.5717 24.6596C29.2772 23.3651 28.2732 21.8724 27.5599 20.1816C26.8466 18.4644 26.49 16.6019 26.49 14.5941C26.49 12.5863 26.8466 10.7369 27.5599 9.04615C28.2732 7.32894 29.2772 5.83628 30.5717 4.56818C31.8926 3.27367 33.4249 2.28297 35.1685 1.59608C36.9386 0.882776 38.8539 0.526123 40.9146 0.526123C42.9752 0.526123 44.8774 0.882776 46.621 1.59608C48.3911 2.28297 49.9234 3.26046 51.2179 4.52855C52.5124 5.79665 53.5163 7.28931 54.2296 9.00652C54.9693 10.6973 55.3392 12.5598 55.3392 14.5941C55.3392 16.6283 54.9693 18.504 54.2296 20.2213C53.5163 21.9121 52.5124 23.3915 51.2179 24.6596C49.9234 25.9277 48.3911 26.9184 46.621 27.6317C44.8774 28.3186 42.9752 28.662 40.9146 28.662ZM40.9146 26.7995C42.6846 26.7995 44.3226 26.4957 45.8285 25.8881C47.3343 25.2804 48.6421 24.4218 49.7516 23.3122C50.8612 22.2027 51.7198 20.9081 52.3275 19.4287C52.9615 17.9493 53.2785 16.3377 53.2785 14.5941C53.2785 12.824 52.9615 11.2125 52.3275 9.75946C51.7198 8.28001 50.8612 6.9855 49.7516 5.87591C48.6421 4.76632 47.3343 3.90772 45.8285 3.30009C44.3226 2.69246 42.6846 2.38864 40.9146 2.38864C39.1445 2.38864 37.5066 2.69246 36.0007 3.30009C34.4948 3.90772 33.1739 4.76632 32.0379 5.87591C30.9283 6.9855 30.0565 8.28001 29.4225 9.75946C28.8148 11.2125 28.511 12.824 28.511 14.5941C28.511 16.3377 28.8148 17.9493 29.4225 19.4287C30.0565 20.9081 30.9283 22.2027 32.0379 23.3122C33.1739 24.4218 34.4948 25.2804 36.0007 25.8881C37.5066 26.4957 39.1445 26.7995 40.9146 26.7995Z" fill="white"/>
<path d="M74.1186 28.662C72.0579 28.662 70.1425 28.3186 68.3725 27.6317C66.6289 26.9184 65.0966 25.9277 63.7756 24.6596C62.4811 23.3651 61.4772 21.8724 60.7639 20.1816C60.0506 18.4644 59.6939 16.6019 59.6939 14.5941C59.6939 12.5863 60.0506 10.7369 60.7639 9.04615C61.4772 7.32894 62.4811 5.83628 63.7756 4.56818C65.0966 3.27367 66.6289 2.28297 68.3725 1.59608C70.1425 0.882776 72.0579 0.526123 74.1186 0.526123C76.1792 0.526123 78.0814 0.882776 79.825 1.59608C81.595 2.28297 83.1273 3.26046 84.4218 4.52855C85.7164 5.79665 86.7203 7.28931 87.4336 9.00652C88.1733 10.6973 88.5432 12.5598 88.5432 14.5941C88.5432 16.6283 88.1733 18.504 87.4336 20.2213C86.7203 21.9121 85.7164 23.3915 84.4218 24.6596C83.1273 25.9277 81.595 26.9184 79.825 27.6317C78.0814 28.3186 76.1792 28.662 74.1186 28.662ZM74.1186 26.7995C75.8886 26.7995 77.5266 26.4957 79.0324 25.8881C80.5383 25.2804 81.846 24.4218 82.9556 23.3122C84.0652 22.2027 84.9238 20.9081 85.5314 19.4287C86.1655 17.9493 86.4825 16.3377 86.4825 14.5941C86.4825 12.824 86.1655 11.2125 85.5314 9.75946C84.9238 8.28001 84.0652 6.9855 82.9556 5.87591C81.846 4.76632 80.5383 3.90772 79.0324 3.30009C77.5266 2.69246 75.8886 2.38864 74.1186 2.38864C72.3485 2.38864 70.7105 2.69246 69.2047 3.30009C67.6988 3.90772 66.3779 4.76632 65.2419 5.87591C64.1323 6.9855 63.2605 8.28001 62.6264 9.75946C62.0188 11.2125 61.715 12.824 61.715 14.5941C61.715 16.3377 62.0188 17.9493 62.6264 19.4287C63.2605 20.9081 64.1323 22.2027 65.2419 23.3122C66.3779 24.4218 67.6988 25.2804 69.2047 25.8881C70.7105 26.4957 72.3485 26.7995 74.1186 26.7995Z" fill="white"/>
<path d="M95.553 28.4639V0.724264H106.53C109.462 0.724264 112.038 1.31868 114.257 2.50753C116.477 3.69637 118.194 5.33433 119.409 7.4214C120.651 9.50848 121.272 11.8994 121.272 14.5941C121.272 17.2888 120.651 19.6797 119.409 21.7668C118.194 23.8538 116.477 25.4918 114.257 26.6806C112.038 27.8695 109.462 28.4639 106.53 28.4639H95.553ZM97.574 26.641H106.371C108.987 26.641 111.259 26.1258 113.187 25.0955C115.116 24.0652 116.609 22.6518 117.665 20.8553C118.722 19.0324 119.251 16.9453 119.251 14.5941C119.251 12.2428 118.722 10.1689 117.665 8.37248C116.609 6.54959 115.116 5.12298 113.187 4.09265C111.259 3.06232 108.987 2.54715 106.371 2.54715H97.574V26.641Z" fill="white"/>
<path d="M127.183 28.4639V0.724264H138.596C141.053 0.724264 143.153 1.12054 144.897 1.91311C146.667 2.70567 148.027 3.84167 148.978 5.32112C149.929 6.80056 150.405 8.55741 150.405 10.5916C150.405 12.6259 149.929 14.3827 148.978 15.8622C148.027 17.3416 146.667 18.4776 144.897 19.2702C143.153 20.0627 141.053 20.459 138.596 20.459H130.036L132.335 18.0417V28.4639H127.183ZM132.335 18.5965L130.036 16.0999H138.358C140.63 16.0999 142.334 15.6244 143.47 14.6733C144.633 13.6958 145.214 12.3353 145.214 10.5916C145.214 8.82159 144.633 7.46103 143.47 6.50996C142.334 5.55889 140.63 5.08335 138.358 5.08335H130.036L132.335 2.54715V18.5965Z" fill="white"/>
<path d="M150.233 28.4639L162.716 0.724264H167.788L180.311 28.4639H174.921L164.182 3.4586H166.243L155.543 28.4639H150.233ZM155.979 22.0441L157.366 18.0021H172.346L173.733 22.0441H155.979Z" fill="white"/>
<path d="M188.991 28.4639V17.4869L190.14 20.6572L178.093 0.724264H183.601L193.27 16.7736H190.179L199.928 0.724264H205L192.953 20.6572L194.142 17.4869V28.4639H188.991Z" fill="white"/>
</svg>
