<svg width="40" height="39" viewBox="0 0 40 39" fill="none" xmlns="http://www.w3.org/2000/svg">
<rect width="39.628" height="38.7474" rx="4" fill="white"/>
<path d="M28.8807 6.97437H10.7478C10.1955 6.97437 9.7478 7.42208 9.7478 7.97436V11.0115C9.7478 11.5638 10.1955 12.0115 10.7478 12.0115H20.4346C21.2827 12.0115 21.7458 13.0009 21.2025 13.6522L9.97996 27.1031C9.82996 27.2829 9.7478 27.5096 9.7478 27.7437V30.6435C9.7478 31.1958 10.1955 31.6435 10.7478 31.6435H28.8807C29.433 31.6435 29.8807 31.1958 29.8807 30.6436V27.3481C29.8807 26.7958 29.433 26.3481 28.8807 26.3481H19.5958C18.7448 26.3481 18.2827 25.3528 18.8319 24.7027L29.6446 11.9035C29.797 11.7231 29.8807 11.4944 29.8807 11.2582V7.97437C29.8807 7.42208 29.433 6.97437 28.8807 6.97437Z" fill="#303593"/>
<path d="M17.4415 0H22.5709V6.74948C22.5709 7.30177 22.1231 7.74948 21.5709 7.74948H18.4415C17.8892 7.74948 17.4415 7.30177 17.4415 6.74948V0Z" fill="#303593"/>
<path d="M17.4415 31.9978C17.4415 31.4455 17.8892 30.9978 18.4415 30.9978H21.5709C22.1231 30.9978 22.5709 31.4455 22.5709 31.9978V38.7473H17.4415V31.9978Z" fill="#303593"/>
</svg>
